<svg xmlns="http://www.w3.org/2000/svg" viewBox="0 0 154 55" width="308" height="110">
  <rect fill="#FFF" x="0" y="0" width="154" height="55"/>
  <g fill="none" fill-rule="evenodd">
    <g transform="translate(10 10)">
      <path fill="#C0E6F7"
            d="M3.7 25H33h-5.5a2.5 2.5 0 0 0 0 5H33 3.7h.8a2.5 2.5 0 1 0 0-5h-.8zm-.5-10H33h-.5a2.5 2.5 0 1 0 0 5h.5H3.2h.3a2.5 2.5 0 1 0 0-5h-.3zm.5-10H33h-3.5a2.5 2.5 0 1 0 0 5H33 3.7h.8a2.5 2.5 0 1 0 0-5h-.8zM3 2.5C3 1.1 4.1 0 5.5 0h25a2.5 2.5 0 1 1 0 5h-25A2.5 2.5 0 0 1 3 2.5zm-1 10C2 11.1 3.1 10 4.5 10h28a2.5 2.5 0 1 1 0 5h-28A2.5 2.5 0 0 1 2 12.5zm-2 10C0 21.1 1.1 20 2.5 20h30a2.5 2.5 0 1 1 0 5h-30A2.5 2.5 0 0 1 0 22.5zm3 10C3 31.1 4.1 30 5.5 30h24a2.5 2.5 0 1 1 0 5h-24A2.5 2.5 0 0 1 3 32.5z"/>
      <rect width="26" height="26" x="5" y="5" fill="#7A7DA0" rx="5"/>
      <path stroke="#FFF" stroke-linecap="round" stroke-linejoin="round" stroke-width="5" d="M10 17.5l6 5.5 10-11"/>
    </g>
    <path fill="#7A7DA0"
          d="M129.7 33l-1.5 1c-1 .5-1.7.7-2.5.7-1 0-1.8-.3-2.2-1 1.8-.5 3.2-1.2 4-2 .8-.8 1.2-1.7 1.2-2.8a3 3 0 0 0-.9-2.3 3 3 0 0 0-2.2-.8c-1 0-2 .3-2.8.9-.8.5-1.5 1.3-2 2.2a7 7 0 0 0-.6 4.1l-.9.9c-.4.4-1 .6-1.4.6-.5 0-.9-.2-1.2-.4-.3-.3-.5-.6-.6-1 1.1-.6 1.9-1.3 2.3-2 .5-.8.7-1.6.7-2.5a3 3 0 0 0-.7-2c-.5-.5-1.2-.8-2-.8s-1.8.5-2.8 1.4c-1 .9-1.8 2.3-2.6 4.3V29c2.2-2.4 3.7-4.4 4.7-6.1 1-1.8 1.4-3.4 1.4-5 0-1-.2-1.9-.7-2.5-.4-.6-1-1-1.8-1-1.4 0-2.5 1-3.5 2.8-1 1.8-1.7 4-2.2 6.7a41.6 41.6 0 0 0-.8 8.6 8 8 0 0 1-1.8 1.5c-.8.4-1.5.6-2.1.6-1.6 0-2.4-.9-2.4-2.8 0-.6 0-1.2.2-1.8.2-.6.5-1 .8-1.3.3-.4.7-.5 1-.5l.5.1.1.5v.7a13.7 13.7 0 0 0-.2.7l.3.6.7.2c.5 0 .9-.2 1.2-.7.3-.5.4-1 .4-1.7 0-.8-.2-1.5-.7-2-.5-.5-1.2-.8-2-.8-1 0-1.8.3-2.6.8s-1.5 1.3-2 2.3a7.2 7.2 0 0 0-.8 4c-.4.5-.9.8-1.4 1-.9.6-1.7.8-2.4.8-1.1 0-2-.3-2.3-1 1.9-.5 3.2-1.2 4-2 .8-.8 1.2-1.7 1.2-2.8a3 3 0 0 0-.8-2.3 3 3 0 0 0-2.3-.8c-1 0-2 .3-2.8.9-.8.5-1.4 1.3-1.9 2.2a7 7 0 0 0-.6 4.1l-.9.9c-.4.4-.8.6-1.1.6-.5 0-.7-.3-.7-1l.4-2.7c.4-1.7.6-2.8.6-3.4 0-1-.5-1.6-1.6-1.6-.5 0-1.1.2-1.7.6-.7.3-1.3 1-2 1.8-.6.9-1.2 2-1.7 3.3V29c2.2-2.4 3.7-4.4 4.7-6.1 1-1.8 1.4-3.4 1.4-5 0-1-.2-1.9-.7-2.5-.5-.6-1-1-1.8-1-1.4 0-2.5 1-3.5 2.8-1 1.8-1.8 4-2.3 6.7-.5 2.7-.7 5.2-.7 7.7v1.2l-3.2 1c-1 .3-2.1.4-3.2.4-2 0-3.7-.5-4.7-1.5-1.1-1-1.6-2.6-1.6-4.5 0-1.8.3-3.4.9-4.7a7.2 7.2 0 0 1 2.3-3c1-.8 2-1.1 3-1.1 1.6 0 2.3.7 2.3 2.2l-.1 1.1-.1.8c0 .4.1.7.4 1l1 .2c.7 0 1.2-.3 1.5-.9.4-.5.5-1.3.5-2.3 0-1.5-.4-2.6-1.3-3.5-1-1-2.2-1.4-4-1.4a9 9 0 0 0-5 1.5c-1.5 1-2.7 2.5-3.6 4.3-1 1.8-1.4 3.9-1.4 6.2 0 1.7.4 3.2 1.2 4.5a7.5 7.5 0 0 0 3.2 3c1.4.7 3 1 5 1a18.8 18.8 0 0 0 6.9-1.4c0 .4 0 .7.2.9.1.3.4.5 1 .5 1.1 0 1.9-.6 2.2-1.9a17.2 17.2 0 0 1 2-5c.4-.4.7-.7 1-.7.1 0 .2.1.2.4l-.3 2a15 15 0 0 0-.3 2.5c0 .9.2 1.5.6 2 .4.5 1 .7 1.8.7 1 0 2-.3 2.7-.8l1.3-1.1.5.6c1 .9 2.2 1.3 4 1.3a7 7 0 0 0 3.4-.9l1.5-1c0 .2.2.4.4.6.9.9 2.1 1.3 3.7 1.3 1 0 2-.2 3-.7l1.6-1c0 .5.2.9.4 1.2.2.3.6.5 1 .5.6 0 1-.1 1.2-.4.2-.2.4-.7.6-1.5.2-1 .6-2 1-3 .5-1 1-1.8 1.5-2.4.5-.7 1-1 1.4-1 .2 0 .3 0 .5.2l.1.7c0 .5-.1.9-.4 1.2-.3.4-.8.7-1.5 1-.7.3-1 .7-1 1.4 0 1.1.4 2 1.1 2.8.8.7 1.8 1 3 1 1 0 1.9-.2 2.6-.8l1.3-1 .5.5c.9.9 2.2 1.3 3.9 1.3a7 7 0 0 0 3.4-.9l1.3-.8c0 .2.2.4.4.6a3 3 0 0 0 2.4 1.1c.6 0 1.2-.1 1.7-.4.5-.2 1-.7 1.6-1.5v.1c.3.8.5 1.3.8 1.6.3.2.6.4 1.1.4 1 0 1.4-.4 1.4-1.1l-.1-.7c-.4-1.2-.6-2.5-.8-3.9 1.4-2.4 2.6-4.9 3.4-7.2.9-2.4 1.3-4.4 1.3-6.2 0-1.3-.2-2.2-.7-2.8a2 2 0 0 0-1.7-1c-1.4 0-2.5 1.2-3.4 3.4-.9 2.2-1.4 4.9-1.7 7.9-1.2.1-2.3.6-3.2 1.3-1 .7-1.7 1.5-2.2 2.6-.5 1-.8 2.2-.8 3.3zM82.8 18l-1 3.4L81 26c1-1.2 1.8-2.5 2.5-3.9a9 9 0 0 0 1-3.7l-.2-1.2c-.1-.2-.3-.4-.5-.4-.3 0-.6.4-1 1.3zm10 11.2c-.4.7-.6 1.5-.6 2.5 1-.2 1.7-.5 2.2-1 .6-.4.9-1 .9-1.5 0-.3-.1-.6-.3-.8a.9.9 0 0 0-.7-.2c-.6 0-1 .3-1.5 1zm20.4-11.1a44.5 44.5 0 0 0-1.8 8c1-1.3 1.7-2.6 2.4-4a9 9 0 0 0 1-3.7c0-.5 0-.9-.2-1.2-.1-.2-.3-.4-.5-.4-.3 0-.6.4-1 1.3zm10.5 11.1c-.4.7-.6 1.5-.6 2.5 1-.2 1.7-.5 2.2-1 .5-.4.8-1 .8-1.5 0-.3 0-.6-.2-.8a.9.9 0 0 0-.7-.2c-.6 0-1.1.3-1.5 1zm15.8-8.9c-.5 2.4-.7 5-.9 7.8 1.8-3.9 2.7-7 2.7-9.4 0-.6 0-1-.2-1.4 0-.3-.2-.5-.3-.5-.5 0-1 1.2-1.3 3.5zm-4.7 14c.3-.2.6-.7 1.1-1.4a26.7 26.7 0 0 1-.2-4.7c-.9.2-1.6.8-2.2 1.7-.6 1-.9 2-.9 3 0 1.2.4 1.8 1.2 1.8.4 0 .7-.1 1-.4z"/>
  </g>
</svg>
